<svg width="1651" height="478" viewBox="0 0 1651 478" fill="none" xmlns="http://www.w3.org/2000/svg">
<g clip-path="url(#clip0_2812_1118)">
<rect width="1651" height="478" fill="white"/>
<path d="M0 0H1651V478H0V0Z" fill="#E7E7FF"/>
<path d="M234.176 129.164H245.012V120.008H234.176V90.776H223.088V168.056H234.176V129.164ZM187.052 140V98.168H175.964V149.24H182.684C194.192 149.24 206.372 148.568 219.224 145.88L218.132 136.808C207.296 138.908 196.88 139.748 187.052 140ZM257.101 123.788H311.113V114.968H268.189V94.304H257.101V123.788ZM288.601 141.512H318.421V132.524H248.365V141.512H277.513V168.308H288.601V141.512ZM387.547 168.14V90.776H376.375V168.14H387.547ZM364.531 98.84H327.403V107.66H353.191C351.595 124.796 343.027 136.976 323.287 146.384L329.083 155.12C356.551 141.932 364.531 122.444 364.531 98.84ZM462.936 118.496L473.94 119.42C475.956 110.6 475.956 103.796 475.956 98.42V93.632H422.364V102.368H464.868C464.784 106.652 464.364 111.776 462.936 118.496ZM484.188 131.768V123.032H451.428V110.348H440.34V123.032H414.552V131.768H484.188ZM475.704 136.22H464.784V143.612H433.704V136.22H422.784V167.3H475.704V136.22ZM433.704 151.928H464.784V158.648H433.704V151.928ZM549.869 130.256H560.957V121.1H549.869V90.86H538.781V168.224H549.869V130.256ZM533.741 102.284H516.941V92.204H505.853V102.284H488.717V111.104H533.741V102.284ZM511.481 115.472C500.225 115.472 491.825 123.116 491.825 133.868C491.825 144.872 500.225 152.432 511.481 152.432C522.653 152.432 530.969 144.872 530.969 133.868C530.969 123.116 522.653 115.472 511.481 115.472ZM511.481 143.36C506.105 143.36 502.409 140 502.409 133.952C502.409 127.904 506.105 124.46 511.481 124.46C516.857 124.46 520.469 128.072 520.469 133.868C520.469 139.916 516.857 143.36 511.481 143.36ZM628.318 168.14V90.776H617.146V168.14H628.318ZM605.302 98.84H568.174V107.66H593.962C592.366 124.796 583.798 136.976 564.058 146.384L569.854 155.12C597.322 141.932 605.302 122.444 605.302 98.84ZM654.688 174.608L662.416 171.332C655.36 158.816 652.168 145.628 652.168 131.096C652.168 116.732 655.36 103.46 662.416 90.944L654.688 87.668C646.708 100.688 642.172 114.296 642.172 131.096C642.172 147.98 646.708 161.588 654.688 174.608ZM698.95 107.996C698.95 112.028 702.226 115.304 706.258 115.304C710.29 115.304 713.566 112.028 713.566 107.996C713.566 104.048 710.29 100.688 706.258 100.688C702.226 100.688 698.95 104.048 698.95 107.996ZM736.078 133.448V124.88H676.438V133.448H736.078ZM698.95 150.332C698.95 154.28 702.226 157.64 706.258 157.64C710.29 157.64 713.566 154.28 713.566 150.332C713.566 146.3 710.29 143.024 706.258 143.024C702.226 143.024 698.95 146.3 698.95 150.332ZM787.822 135.128L809.41 156.716L815.458 150.668L793.87 129.08L815.458 107.492L809.41 101.444L787.822 123.032L766.234 101.444L760.186 107.492L781.774 129.08L760.186 150.668L766.234 156.716L787.822 135.128ZM831.586 171.332L839.23 174.608C847.21 161.588 851.83 147.98 851.83 131.096C851.83 114.296 847.294 100.688 839.23 87.668L831.586 90.944C838.642 103.46 841.834 116.732 841.834 131.096C841.834 145.628 838.642 158.816 831.586 171.332Z" fill="white"/>
<path d="M203.61 231.33V228.78H199.5V218.22H196.41V245.31H199.5V231.33H203.61ZM182.55 235.98V220.86H179.46V238.56H181.71C185.82 238.56 189.99 238.29 194.58 237.36L194.22 234.81C190.11 235.65 186.3 235.95 182.55 235.98ZM227.818 226.68V224.19H212.338V218.55H209.278V226.68H227.818ZM219.868 231.21H230.668V228.69H206.068V231.21H216.778V233.67H209.008V236.04H224.548V238.11H209.098V245.07H228.478V242.67H212.188V240.3H227.638V233.67H219.868V231.21ZM239.275 247.35L241.435 246.39C238.795 242.04 237.655 237.18 237.655 231.99C237.655 226.83 238.795 221.94 241.435 217.59L239.275 216.66C236.485 221.19 234.835 226.08 234.835 231.99C234.835 237.96 236.485 242.79 239.275 247.35ZM255.489 224.07C255.489 225.39 256.569 226.44 257.859 226.44C259.149 226.44 260.229 225.39 260.229 224.07C260.229 222.78 259.149 221.73 257.859 221.73C256.569 221.73 255.489 222.78 255.489 224.07ZM268.659 230.43H247.059V232.92H268.659V230.43ZM255.489 239.28C255.489 240.6 256.569 241.65 257.859 241.65C259.149 241.65 260.229 240.6 260.229 239.28C260.229 237.99 259.149 236.94 257.859 236.94C256.569 236.94 255.489 237.99 255.489 239.28ZM274.209 246.39L276.369 247.35C279.219 242.79 280.839 237.96 280.839 231.99C280.839 226.08 279.219 221.19 276.369 216.66L274.209 217.59C276.849 221.94 277.989 226.83 277.989 231.99C277.989 237.18 276.849 242.04 274.209 246.39ZM307.283 230.7L308.483 228.21C303.023 227.4 298.943 224.07 298.943 220.53V219.09H295.673V220.53C295.673 224.1 291.653 227.4 286.133 228.21L287.333 230.7C291.923 229.98 295.523 227.73 297.323 224.58C299.123 227.7 302.693 229.98 307.283 230.7ZM309.533 235.77V233.25H285.053V235.77H295.673V245.34H298.763V235.77H309.533ZM337.191 232.95H326.451V230.49H334.641V228.12H318.801V225.72H334.101V218.85H315.711V221.22H331.041V223.5H315.771V230.49H323.361V232.95H312.621V235.44H337.191V232.95ZM315.381 237.27V239.76H331.161V245.16H334.251V237.27H315.381ZM364.598 228.03L367.688 228.3C368.408 225.3 368.408 223.02 368.408 221.1V219.24H349.808V221.73H365.318C365.318 223.44 365.228 225.39 364.598 228.03ZM371.438 229.68H359.708V225.03H356.588V229.68H347.018V232.17H371.438V229.68ZM365.258 234.15V237.12H353.108V234.15H350.018V244.98H368.348V234.15H365.258ZM365.258 239.49V242.52H353.108V239.49H365.258ZM397.475 218.25H394.535V234.06H397.475V218.25ZM389.225 226.41V233.73H392.135V218.76H389.225V223.86H385.415V226.41H389.225ZM386.195 232.92L387.845 230.55C384.485 229.11 382.805 226.02 382.805 222.99V219.72H379.805V222.99C379.805 226.05 377.975 229.47 374.375 231.06L376.055 233.43C378.575 232.26 380.315 230.22 381.305 227.82C382.235 230.1 383.795 231.87 386.195 232.92ZM379.445 235.32V244.98H397.475V235.32H379.445ZM382.505 242.52V237.78H394.475V242.52H382.505ZM407.703 247.35L409.863 246.39C407.223 242.04 406.083 237.18 406.083 231.99C406.083 226.83 407.223 221.94 409.863 217.59L407.703 216.66C404.913 221.19 403.263 226.08 403.263 231.99C403.263 237.96 404.913 242.79 407.703 247.35ZM434.297 241.41L436.067 239.67L428.057 231.66L436.067 223.68L434.297 221.91L426.317 229.92L418.337 221.91L416.537 223.68L424.547 231.66L416.537 239.67L418.307 241.41L426.317 233.43L434.297 241.41ZM442.637 246.39L444.797 247.35C447.647 242.79 449.267 237.96 449.267 231.99C449.267 226.08 447.647 221.19 444.797 216.66L442.637 217.59C445.277 221.94 446.417 226.83 446.417 231.99C446.417 237.18 445.277 242.04 442.637 246.39ZM475.771 218.19H472.651V245.37H475.771V218.19ZM461.341 220.2C457.351 220.2 454.381 223.92 454.381 229.74C454.381 235.62 457.351 239.31 461.341 239.31C465.391 239.31 468.331 235.62 468.331 229.74C468.331 223.92 465.391 220.2 461.341 220.2ZM461.341 222.99C463.741 222.99 465.361 225.51 465.361 229.74C465.361 234.09 463.741 236.55 461.341 236.55C458.941 236.55 457.351 234.09 457.351 229.74C457.351 225.51 458.941 222.99 461.341 222.99ZM510.078 218.16H506.958V245.37H510.078V218.16ZM498.258 236.97V232.08H503.778V229.59H492.888V223.2H503.658V220.68H489.798V232.08H495.168V237.09C492.618 237.15 490.218 237.18 487.908 237.18L488.298 239.73C493.428 239.73 499.698 239.7 505.548 238.74L505.308 236.46C503.028 236.73 500.658 236.88 498.258 236.97ZM537.885 218.19H534.765V228.3H529.485C529.095 223.35 526.305 220.2 522.675 220.2C518.685 220.2 515.835 223.92 515.835 229.74C515.835 235.62 518.685 239.31 522.675 239.31C526.365 239.31 529.185 236.07 529.515 230.82H534.765V245.37H537.885V218.19ZM522.675 236.55C520.365 236.55 518.775 234.09 518.775 229.74C518.775 225.51 520.365 222.99 522.675 222.99C525.075 222.99 526.605 225.51 526.605 229.74C526.605 234.09 525.075 236.55 522.675 236.55ZM574.202 229.65H563.492V227.43H571.322V224.97H555.902V221.67H571.052V219.18H552.842V227.43H560.372V229.65H549.632V232.11H574.202V229.65ZM555.692 242.67V240.48H571.112V234H552.572V236.31H568.082V238.29H552.632V245.04H571.892V242.67H555.692ZM602.49 231.36V228.81H598.26V218.22H595.17V245.34H598.26V231.36H602.49ZM584.49 220.2C580.44 220.2 577.53 223.92 577.53 229.77C577.53 235.62 580.44 239.31 584.49 239.31C588.54 239.31 591.45 235.62 591.45 229.77C591.45 223.92 588.54 220.2 584.49 220.2ZM584.49 236.55C582.09 236.55 580.5 234 580.5 229.77C580.5 225.54 582.09 222.99 584.49 222.99C586.89 222.99 588.48 225.54 588.48 229.77C588.48 234 586.89 236.55 584.49 236.55ZM629.427 239.46H618.657V234.3C623.607 233.82 627.087 231.09 627.087 227.07C627.087 222.63 622.857 219.81 617.127 219.81C611.367 219.81 607.167 222.63 607.167 227.07C607.167 231.12 610.617 233.79 615.567 234.27V239.46H604.887V241.98H629.427V239.46ZM610.167 227.07C610.167 224.1 613.077 222.27 617.127 222.27C621.147 222.27 624.057 224.1 624.057 227.07C624.057 230.04 621.147 231.87 617.127 231.87C613.077 231.87 610.167 230.04 610.167 227.07ZM654.235 228.51V225.99H638.725V219.18H635.635V228.51H654.235ZM657.055 231.75H632.455V234.24H657.055V231.75ZM638.545 242.22V236.73H635.455V244.71H654.385V242.22H638.545ZM689.142 218.22H686.052V245.31H689.142V218.22ZM681.162 221.07H668.322V223.59H677.982C677.472 229.83 674.082 234.57 666.972 238.02L668.622 240.48C677.922 235.98 681.162 229.14 681.162 221.07ZM699.399 218.88H696.459V229.29H705.729V218.88H702.789V221.64H699.399V218.88ZM710.469 218.88H707.559V229.29H716.769V218.88H713.829V221.64H710.469V218.88ZM699.399 226.8V224.01H702.789V226.8H699.399ZM710.469 226.8V224.01H713.829V226.8H710.469ZM718.869 231.45H694.359V233.97H718.869V231.45ZM715.869 236.31H697.299V244.98H715.869V236.31ZM700.329 238.77H712.839V242.52H700.329V238.77Z" fill="white"/>
<path d="M177 247.5H720.459V249H177V247.5Z" fill="white"/>
<g clip-path="url(#clip1_2812_1118)">
<path d="M1076.48 44.7198C1072.95 31.8526 1101.41 20.8188 1108.89 31.1808C1109.93 29.7076 1113.77 28.8128 1115.53 29.2647C1117.25 29.8375 1118.85 30.7468 1120.22 31.94C1122.21 33.4674 1124.27 35.0491 1125.49 37.2453C1126.72 39.4325 1126.91 42.4151 1125.25 44.313C1123.94 45.8224 1120.07 46.7985 1118.1 47.1962C1116.73 47.4764 1115.57 47.7023 1114.58 47.865C1113.68 46.564 1113.26 44.9864 1113.4 43.4093C1112.74 43.8606 1112.17 44.4545 1111.76 45.1483C1111.35 45.8421 1111.1 46.6186 1111.02 47.4221C1110.99 47.7565 1122.13 88.726 1122.13 88.726C1120.79 89.4874 1119.38 90.1199 1117.92 90.6149C1115.04 86.208 1112.83 81.3948 1111.37 76.3348C1111.04 79.7183 1111.08 83.1286 1111.5 86.5026C1111.72 88.3946 1112.04 90.274 1112.46 92.1333C1099.22 94.9893 1079.32 94.0494 1070.66 81.9023L1070.66 81.7514C1070.65 81.272 1070.48 80.8097 1070.17 80.4439C1069.86 80.0781 1069.43 79.8315 1068.96 79.7463C1068.49 79.6611 1068 79.7427 1067.58 79.977C1067.16 80.2113 1066.84 80.5838 1066.67 81.0306C1066.46 81.5665 1066.26 82.0304 1066.09 82.3994C1063.57 73.3794 1066.83 62.9404 1076.48 44.7198Z" fill="#2F2E41"/>
<path d="M1138.88 456.283L1148.73 456.2L1153.1 417.287L1138.55 417.41L1138.88 456.283Z" fill="#FFB6B6"/>
<path d="M1168.52 468.351L1152.78 457.671L1152.72 450.616L1149.33 450.843L1138.84 451.567L1136.26 451.738L1134.39 476.672L1141.79 476.605L1143.05 469.614L1146.48 476.57L1166.08 476.406C1167.02 476.398 1167.94 476.09 1168.69 475.527C1169.44 474.964 1169.99 474.175 1170.26 473.275C1170.54 472.376 1170.51 471.413 1170.2 470.528C1169.89 469.642 1169.3 468.879 1168.52 468.351L1168.52 468.351Z" fill="#2F2E41"/>
<path d="M1040.57 452.439L1050.32 453.92L1060.8 416.192L1046.41 414.006L1040.57 452.439Z" fill="#FFB6B6"/>
<path d="M1067.93 469.056L1054.08 456.014L1055.14 449.039L1051.76 448.726L1041.28 447.776L1038.71 447.537L1032.91 471.86L1040.23 472.966L1042.58 466.264L1044.87 473.675L1064.24 476.622C1065.17 476.763 1066.12 476.604 1066.95 476.167C1067.79 475.73 1068.46 475.039 1068.87 474.194C1069.28 473.349 1069.41 472.395 1069.24 471.471C1069.07 470.547 1068.61 469.7 1067.93 469.056L1067.93 469.056Z" fill="#2F2E41"/>
<path d="M1134.34 184.421L1162.29 234.485C1162.29 234.485 1161.13 337.45 1164.84 341.269C1168.56 345.088 1171.92 348.513 1168.56 348.482C1165.19 348.451 1161.12 356.635 1161.12 356.635L1154.17 433.999H1136.62C1136.62 433.999 1124.28 388.377 1126.91 362.36L1106.13 267.283C1106.13 267.283 1091.2 357.196 1088.51 359.887C1085.82 362.578 1084.19 362.558 1087.02 365.259C1089.85 367.959 1087.02 374.066 1087.02 374.066L1057.52 435.287L1041.52 433.269C1041.52 433.269 1044.3 383.291 1053.96 361.835V260.44C1053.23 269.133 1087.26 181.144 1066.45 187.748C1073.03 185.659 1134.34 184.421 1134.34 184.421Z" fill="#2F2E41"/>
<path d="M1056.99 270.813C1058.13 269.452 1058.69 267.699 1058.56 265.927C1058.43 264.155 1057.61 262.504 1056.28 261.325C1056.01 261.09 1055.72 260.878 1055.41 260.691L1060.16 237.374L1049.18 230.8L1046.12 263.446C1045.45 264.787 1045.23 266.315 1045.52 267.79C1045.8 269.265 1046.56 270.605 1047.69 271.601C1048.99 272.732 1050.69 273.299 1052.41 273.177C1054.14 273.055 1055.74 272.254 1056.87 270.95C1056.91 270.905 1056.95 270.859 1056.99 270.813Z" fill="#FFB6B6"/>
<path d="M1227.9 219.762C1226.14 219.512 1224.55 218.585 1223.46 217.178C1222.38 215.772 1221.88 213.998 1222.09 212.232C1222.13 211.874 1222.21 211.521 1222.31 211.175L1203.2 196.998L1206.98 184.769L1231.07 207.02C1232.46 207.567 1233.64 208.562 1234.42 209.849C1235.19 211.136 1235.52 212.644 1235.35 214.136C1235.24 214.984 1234.97 215.803 1234.55 216.546C1234.12 217.289 1233.56 217.942 1232.88 218.467C1232.21 218.991 1231.44 219.378 1230.61 219.604C1229.79 219.831 1228.93 219.893 1228.08 219.787C1228.02 219.779 1227.96 219.771 1227.9 219.762Z" fill="#FFB6B6"/>
<path d="M1098.59 82.5045C1111.4 82.5045 1121.78 72.1252 1121.78 59.3215C1121.78 46.5179 1111.4 36.1385 1098.59 36.1385C1085.79 36.1385 1075.41 46.5179 1075.41 59.3215C1075.41 72.1252 1085.79 82.5045 1098.59 82.5045Z" fill="#FFB6B6"/>
<path d="M1434.53 453.271L1426.41 458.549L1402.19 429.75L1414.17 421.96L1434.53 453.271Z" fill="#FFB6B6"/>
<path d="M1440.33 461.554L1415.36 477.785L1415.16 477.47C1413.48 474.893 1412.9 471.756 1413.54 468.749C1414.17 465.742 1415.98 463.111 1418.56 461.436L1418.56 461.435L1420.87 455.011L1431.62 452.939L1433.8 451.522L1440.33 461.554Z" fill="#2F2E41"/>
<path d="M1295.42 467.102L1285.73 467.101L1281.13 429.753L1295.42 429.754L1295.42 467.102Z" fill="#FFB6B6"/>
<path d="M1295.76 477.203L1265.98 477.202V476.825C1265.98 473.752 1267.2 470.804 1269.38 468.631C1271.55 466.457 1274.5 465.236 1277.57 465.236H1277.57L1283.01 461.11L1293.16 465.237L1295.76 465.237L1295.76 477.203Z" fill="#2F2E41"/>
<path d="M1395.64 236.64L1308.81 238.549L1300.21 249.307C1300.21 249.307 1300.95 245.514 1300.29 249.68C1299.63 253.847 1282.87 336.911 1286.04 339.697C1289.21 342.482 1280.04 361.717 1279.36 362.89C1278.69 364.063 1271.43 421.96 1279.36 426.721L1282.34 446.93H1296.21C1296.21 446.93 1310.1 430.854 1307.31 427.94C1304.51 425.026 1312.51 415.336 1312.81 410.14C1313.12 404.944 1316.04 381.377 1313.77 377.598C1311.51 373.819 1308.45 359.638 1314.19 354.14C1319.93 348.642 1346.69 281.083 1346.69 281.083C1346.69 281.083 1354.47 360.286 1354.45 366.505C1354.43 374.592 1359.74 370.59 1359.74 377.69C1359.74 379.124 1377.03 415.992 1388.65 427.517L1412.69 446.005L1423.78 437.685V425.668C1423.78 425.668 1413.5 403.37 1409.91 399.784C1406.33 396.198 1393.09 385.221 1393.09 380.2C1393.09 375.18 1386.85 373.43 1391.05 366.774C1395.24 360.118 1393.8 357.249 1392.37 354.38C1390.94 351.511 1393.66 233.965 1393.66 233.965L1395.64 236.64Z" fill="#2F2E41"/>
<path d="M1359.44 62.3445C1373.93 62.3445 1385.67 50.5975 1385.67 36.1067C1385.67 21.6159 1373.93 9.86884 1359.44 9.86884C1344.95 9.86884 1333.2 21.6159 1333.2 36.1067C1333.2 50.5975 1344.95 62.3445 1359.44 62.3445Z" fill="#FFB6B6"/>
<path d="M1380.4 246.668L1387.78 224.435L1401.07 226.882L1392.43 250.111C1392.95 251.471 1393.09 252.952 1392.82 254.386C1392.55 255.82 1391.89 257.15 1390.9 258.227C1389.92 259.304 1388.65 260.085 1387.25 260.482C1385.84 260.879 1384.36 260.877 1382.95 260.476C1381.55 260.074 1380.29 259.29 1379.31 258.21C1378.33 257.13 1377.67 255.798 1377.4 254.364C1377.13 252.929 1377.27 251.449 1377.8 250.089C1378.33 248.73 1379.23 247.545 1380.4 246.668H1380.4Z" fill="#FFB6B6"/>
<path d="M1227.22 203.702L1245.32 188.824L1255.26 197.975L1235.57 213.025C1235.29 214.457 1234.61 215.782 1233.62 216.852C1232.63 217.921 1231.36 218.693 1229.95 219.079C1228.55 219.466 1227.06 219.453 1225.66 219.041C1224.26 218.63 1223 217.835 1222.03 216.748C1221.06 215.661 1220.41 214.325 1220.15 212.888C1219.9 211.452 1220.05 209.972 1220.59 208.617C1221.13 207.261 1222.03 206.083 1223.21 205.215C1224.38 204.347 1225.77 203.823 1227.22 203.702V203.702Z" fill="#FFB6B6"/>
<path d="M1328.02 31.5166C1330.85 32.3949 1333.58 32.9125 1335.42 30.5922C1337.26 28.2719 1336.78 25.6188 1339.51 24.5002C1341.8 23.7329 1344.29 23.8483 1346.5 24.8238C1346.9 24.9717 1347.29 25.1381 1347.67 25.3045C1347.88 25.1196 1348.09 24.944 1348.32 24.7776C1350.06 23.5408 1352.21 23.018 1354.32 23.317C1352.78 24.063 1351.51 25.2757 1350.69 26.7836C1351.45 27.1626 1352.21 27.5416 1352.99 27.8652C1356.25 29.2001 1359.78 29.7564 1363.3 29.49C1366.81 29.2236 1370.22 28.1419 1373.24 26.3306C1370.21 34.3176 1372.57 37.1648 1377.02 44.4586L1377.19 44.8838C1376.75 42.9703 1382.56 40.7609 1382.56 43.5341C1382.31 46.3754 1381.69 49.1719 1380.71 51.854C1386.42 43.266 1389.78 33.2175 1387.57 23.5758C1387.1 21.5513 1386.89 19.379 1385.6 17.7335C1384.32 16.0973 1381.95 15.1358 1380.08 16.0603C1379.85 12.9251 1378.78 9.91125 1376.97 7.33913C1375.16 4.76701 1372.69 2.73275 1369.82 1.45264C1366.95 0.172519 1363.78 -0.305608 1360.66 0.0690757C1357.54 0.443759 1354.58 1.65724 1352.09 3.58054C1349.78 5.36466 1347.96 7.70348 1345.9 9.78343C1343.84 11.8634 1341.4 13.7584 1338.51 14.2761C1336.68 14.5997 1334.62 14.4056 1333.16 15.5611C1331.47 16.9015 1331.45 19.2588 1331.46 21.5237C1333.12 21.4764 1334.75 21.9238 1336.15 22.8086C1334.43 22.8517 1332.78 23.4339 1331.41 24.4726C1331.39 24.4888 1331.36 24.5073 1331.34 24.528C1330.84 28.3366 1331.04 29.1409 1328.02 31.5166Z" fill="#2F2E41"/>
<path d="M1005.26 460.329C1004.79 460.35 1004.33 460.228 1003.94 459.979C1003.55 459.73 1003.24 459.367 1003.06 458.937C1002.88 458.508 1002.84 458.034 1002.94 457.579C1003.04 457.125 1003.27 456.711 1003.61 456.396L1003.77 455.777C1003.75 455.728 1003.73 455.678 1003.71 455.629C1003.24 454.523 1002.46 453.58 1001.45 452.918C1000.45 452.257 999.274 451.906 998.073 451.911C996.872 451.915 995.699 452.275 994.702 452.943C993.704 453.612 992.927 454.561 992.467 455.671C990.628 460.099 988.287 464.535 987.711 469.217C987.457 471.286 987.564 473.384 988.027 475.417C983.709 465.997 981.467 455.759 981.452 445.396C981.451 442.796 981.596 440.198 981.885 437.613C982.124 435.495 982.455 433.391 982.88 431.303C985.194 419.972 990.163 409.351 997.38 400.314C1000.87 398.408 1003.7 395.477 1005.47 391.917C1006.12 390.637 1006.57 389.271 1006.82 387.861C1006.43 387.912 1005.34 381.912 1005.63 381.544C1005.09 380.711 1004.1 380.297 1003.5 379.484C1000.52 375.44 996.411 376.146 994.266 381.641C989.684 383.954 989.64 387.789 992.451 391.478C994.24 393.825 994.486 397 996.056 399.513C995.894 399.719 995.726 399.92 995.565 400.126C992.613 403.922 990.04 407.997 987.884 412.295C988.408 407.48 987.782 402.61 986.057 398.085C984.309 393.868 981.032 390.316 978.147 386.67C977.384 385.691 976.347 384.96 975.169 384.569C973.99 384.179 972.722 384.147 971.525 384.477C970.328 384.806 969.256 385.484 968.444 386.423C967.632 387.363 967.116 388.521 966.963 389.754C966.957 389.807 966.951 389.861 966.946 389.915C967.374 390.157 967.794 390.413 968.204 390.685C968.72 391.029 969.119 391.522 969.351 392.097C969.582 392.673 969.634 393.304 969.499 393.91C969.365 394.515 969.051 395.066 968.599 395.49C968.146 395.914 967.576 396.192 966.963 396.286L966.9 396.296C967.053 397.841 967.323 399.372 967.708 400.875C964.006 415.191 971.998 420.405 983.409 420.64C983.661 420.769 983.906 420.898 984.158 421.021C981.992 427.161 980.632 433.557 980.115 440.048C979.822 443.878 979.84 447.725 980.167 451.552L980.147 451.416C979.321 447.161 977.051 443.321 973.721 440.546C968.775 436.483 961.788 434.987 956.453 431.722C955.886 431.357 955.226 431.163 954.552 431.161C953.879 431.16 953.218 431.351 952.649 431.712C952.081 432.074 951.627 432.59 951.342 433.201C951.057 433.811 950.953 434.491 951.041 435.159L951.063 435.301C951.859 435.625 952.633 435.998 953.382 436.419C953.81 436.66 954.23 436.917 954.641 437.188C955.156 437.533 955.556 438.025 955.787 438.601C956.018 439.176 956.07 439.808 955.936 440.414C955.802 441.019 955.488 441.57 955.035 441.994C954.583 442.418 954.012 442.696 953.399 442.79L953.337 442.8C953.291 442.806 953.253 442.813 953.208 442.819C954.566 446.064 956.474 449.051 958.846 451.649C961.161 464.146 971.102 465.331 981.736 461.692H981.743C982.91 466.762 984.6 471.698 986.787 476.418H1004.81C1004.87 476.218 1004.93 476.011 1004.99 475.811C1003.32 475.916 1001.65 475.816 1000 475.514C1001.34 473.874 1002.68 472.22 1004.01 470.58C1004.04 470.549 1004.07 470.517 1004.1 470.483C1004.78 469.643 1005.46 468.81 1006.14 467.97L1006.14 467.969C1006.17 465.395 1005.88 462.828 1005.26 460.329L1005.26 460.329Z" fill="#F2F2F2"/>
<path d="M951.667 476.826C951.667 476.983 951.697 477.138 951.757 477.282C951.817 477.427 951.904 477.558 952.015 477.669C952.126 477.779 952.257 477.867 952.402 477.927C952.546 477.986 952.701 478.017 952.858 478.016H1517.15C1517.46 478.016 1517.77 477.891 1517.99 477.668C1518.21 477.445 1518.34 477.142 1518.34 476.826C1518.34 476.511 1518.21 476.208 1517.99 475.985C1517.77 475.762 1517.46 475.636 1517.15 475.636H952.858C952.701 475.636 952.546 475.666 952.402 475.726C952.257 475.785 952.126 475.873 952.015 475.984C951.904 476.094 951.817 476.226 951.757 476.37C951.698 476.515 951.667 476.67 951.667 476.826Z" fill="#CCCCCC"/>
<path d="M1044.94 248.545L1059 249.243L1066.81 216.5C1084.75 212.465 1089.01 201.43 1095.46 203.33C1124.08 211.755 1158.1 210.862 1146.52 199.287C1141.78 194.541 1139.41 178.787 1138.28 161.851H1050.91L1044.94 248.545Z" fill="#7749F8"/>
<path d="M1149.54 161.851L1211.99 205.057L1221.99 195.141L1187.69 161.851H1149.54Z" fill="#7749F8"/>
<path d="M1159.53 134.522L1137.52 111.046C1137.53 110.8 1137.54 110.66 1137.54 110.66L1136.87 110.343L1130.46 103.515C1128.64 101.558 1126.45 99.9899 1124 98.9029C1121.56 97.8159 1118.93 97.2328 1116.25 97.1886C1115.49 97.1769 1114.73 97.2075 1113.98 97.2805L1110.58 88.9581L1082.17 82.9304L1076.52 94.2873L1065.51 100.665C1062.96 101.518 1060.61 102.879 1058.6 104.664L1057.52 105.287L1057.6 105.614C1054 109.237 1051.93 114.11 1051.83 119.219L1050.92 161.709L1050.91 161.851H1138.28C1138.12 159.59 1137.99 157.31 1137.88 155.03C1141.83 157.054 1145.67 159.294 1149.38 161.74L1149.54 161.851H1187.69L1159.53 134.522Z" fill="#9990FF"/>
<path d="M1245.99 181.885C1248.26 186.373 1245.07 183.345 1241.5 184.156C1237.93 184.967 1239.66 187.076 1239.74 190.185C1239.82 193.295 1227.55 199.837 1227.55 199.837C1235.04 202.514 1244.42 213.518 1244.42 213.518C1244.42 213.518 1253.5 203.947 1255.15 202.947C1256.8 201.947 1257.72 200.487 1262.94 198.676C1268.16 196.864 1265.97 195.485 1266.35 191.646C1266.72 187.807 1267.99 190.646 1275.32 187.104C1282.65 183.563 1276.7 184.914 1278.73 180.075C1280.76 175.235 1280.11 177.885 1286.7 173.884C1290.67 171.479 1294.61 167.947 1300.09 161.851H1258.28C1250.56 172.504 1245.31 180.552 1245.99 181.885Z" fill="#7749F8"/>
<path d="M1422.61 151.786C1424.07 139.575 1422.22 126.535 1420.33 117.519C1419.72 114.592 1418.52 111.823 1416.78 109.385C1415.05 106.947 1412.84 104.893 1410.28 103.351C1410.09 102.372 1409.75 101.745 1409.22 101.56C1401.77 98.9089 1380.95 86.6609 1380.95 86.6609L1379.2 72.6553L1341.53 70.8452L1331.89 86.6609C1331.89 86.6609 1306.92 89.171 1307.38 98.3125C1301.33 105.856 1274.41 139.561 1258.28 161.851H1300.09C1303.73 157.805 1308.04 152.632 1313.5 145.901C1313.54 145.856 1313.57 145.808 1313.61 145.762C1313.97 151.218 1314.26 156.676 1314.42 161.851H1421.34C1421.74 158.816 1422.16 155.482 1422.61 151.786Z" fill="#7749F8"/>
<path d="M1421.34 161.851H1314.42C1314.9 176.554 1314.45 188.952 1312.31 192.366C1309.3 197.158 1304.22 213.195 1300.08 227.276C1299.28 230.006 1299.14 232.888 1299.67 235.684C1300.2 238.48 1301.39 241.11 1303.13 243.359C1304.87 245.608 1307.12 247.412 1309.7 248.623C1312.27 249.833 1315.1 250.415 1317.94 250.322C1343.58 249.477 1381.11 247.52 1388.42 243.229C1392.4 243.798 1396.33 244.661 1400.18 245.813C1400.18 245.813 1402.77 232.874 1403.63 231.148C1404.49 229.423 1404.49 227.698 1407.94 223.385C1411.39 219.072 1408.8 219.072 1407.08 215.621C1405.35 212.171 1407.94 213.896 1412.25 206.995C1416.57 200.094 1412.25 204.407 1411.39 199.231C1410.53 194.055 1411.39 196.643 1414.84 189.742C1417.7 184.024 1419.38 176.521 1421.34 161.851Z" fill="#9990FF"/>
<path d="M1063.82 46.5273C1060.29 33.6602 1088.76 22.6264 1096.23 32.9883C1097.27 31.5152 1101.11 30.6203 1102.88 31.0722C1104.6 31.6451 1106.19 32.5544 1107.57 33.7475C1109.55 35.275 1111.62 36.8566 1112.84 39.0529C1114.06 41.24 1114.25 44.2226 1112.6 46.1206C1111.29 47.6299 1107.42 48.6061 1105.45 49.0038C1104.08 49.2839 1102.92 49.5099 1101.93 49.6725C1101.02 48.3715 1100.61 46.794 1100.75 45.2168C1100.08 45.6682 1099.52 46.2621 1099.11 46.9559C1098.7 47.6497 1098.44 48.4262 1098.37 49.2297C1098.34 49.5641 1109.47 90.5336 1109.47 90.5336C1108.14 91.295 1106.73 91.9275 1105.27 92.4225C1102.39 88.0155 1100.18 83.2023 1098.72 78.1424C1098.38 81.5258 1098.42 84.9362 1098.84 88.3102C1099.07 90.2022 1099.39 92.0815 1099.8 93.9409C1086.57 96.7969 1066.67 95.857 1058.01 83.7099L1058.01 83.559C1058 83.0795 1057.83 82.6173 1057.52 82.2515C1057.21 81.8857 1056.78 81.6391 1056.31 81.5539C1055.83 81.4687 1055.35 81.5502 1054.93 81.7845C1054.51 82.0188 1054.19 82.3913 1054.01 82.8382C1053.8 83.3741 1053.61 83.838 1053.44 84.207C1050.92 75.1869 1054.18 64.748 1063.82 46.5273Z" fill="#2F2E41"/>
<path d="M1227.94 120.117C1227.91 120.15 1227.88 120.184 1227.84 120.218C1225.34 117.731 1221.96 116.328 1218.43 116.309C1214.9 116.289 1211.5 117.656 1208.97 120.115V120.115C1206.43 122.583 1204.96 125.952 1204.89 129.493C1204.81 133.034 1206.13 136.462 1208.57 139.036L1208.56 139.039L1208.69 139.169L1227.34 158.371L1246.67 139.595L1246.62 139.54C1246.65 139.509 1246.68 139.48 1246.72 139.449C1249.28 136.959 1250.75 133.553 1250.8 129.98C1250.85 126.406 1249.48 122.959 1246.99 120.395V120.395C1244.5 117.832 1241.1 116.362 1237.53 116.31C1233.95 116.258 1230.5 117.627 1227.94 120.117V120.117Z" fill="#DC3535"/>
</g>
</g>
<defs>
<clipPath id="clip0_2812_1118">
<rect width="1651" height="478" fill="white"/>
</clipPath>
<clipPath id="clip1_2812_1118">
<rect width="567.338" height="478.016" fill="white" transform="translate(951)"/>
</clipPath>
</defs>
</svg>
