<svg width="40" height="40" viewBox="0 0 40 40" fill="none" xmlns="http://www.w3.org/2000/svg">
<circle cx="20" cy="20" r="20" fill="#7749F8"/>
<path d="M30.7129 27.7949L26.6113 23.6934C26.4062 23.5293 26.1602 23.4062 25.9141 23.4062H25.2578C26.3652 21.9707 27.0625 20.166 27.0625 18.1562C27.0625 13.4805 23.207 9.625 18.5312 9.625C13.8145 9.625 10 13.4805 10 18.1562C10 22.873 13.8145 26.6875 18.5312 26.6875C20.5 26.6875 22.3047 26.0312 23.7812 24.8828V25.5801C23.7812 25.8262 23.8633 26.0723 24.0684 26.2773L28.1289 30.3379C28.5391 30.748 29.1543 30.748 29.5234 30.3379L30.6719 29.1895C31.082 28.8203 31.082 28.2051 30.7129 27.7949ZM18.5312 23.4062C15.6191 23.4062 13.2812 21.0684 13.2812 18.1562C13.2812 15.2852 15.6191 12.9062 18.5312 12.9062C21.4023 12.9062 23.7812 15.2852 23.7812 18.1562C23.7812 21.0684 21.4023 23.4062 18.5312 23.4062Z" fill="white"/>
</svg>
