<svg width="528" height="362" viewBox="0 0 528 362" fill="none" xmlns="http://www.w3.org/2000/svg">
<path d="M400.252 77.2433C400.252 41.6669 371.536 12.8271 336.117 12.8271C314.615 12.8271 295.642 23.487 284 39.7803C272.359 23.487 253.385 12.8271 231.89 12.8271C196.465 12.8271 167.747 41.6603 167.747 77.2433C167.747 82.2827 168.384 87.1655 169.476 91.872C178.381 147.443 239.904 206.069 284 222.166C328.09 206.069 389.619 147.443 398.511 91.8785C399.616 87.172 400.252 82.2892 400.252 77.2433V77.2433Z" fill="#AA8ED6"/>
<path d="M182.599 346.125C182.183 346.145 181.771 346.032 181.418 345.802C181.066 345.572 180.791 345.236 180.63 344.839C180.469 344.442 180.431 344.004 180.519 343.583C180.608 343.163 180.82 342.781 181.126 342.489L181.265 341.918C181.247 341.872 181.228 341.826 181.21 341.78C180.79 340.758 180.087 339.886 179.189 339.274C178.291 338.663 177.238 338.339 176.162 338.343C175.086 338.347 174.035 338.679 173.141 339.298C172.248 339.916 171.551 340.793 171.139 341.819C169.492 345.913 167.395 350.014 166.878 354.342C166.651 356.255 166.747 358.195 167.162 360.075C163.293 351.366 161.284 341.9 161.271 332.32C161.271 329.916 161.4 327.514 161.659 325.125C161.873 323.166 162.17 321.222 162.55 319.291C164.624 308.815 169.076 298.997 175.54 290.641C178.669 288.879 181.2 286.17 182.791 282.879C183.367 281.695 183.774 280.432 184 279.129C183.647 279.176 182.669 273.629 182.935 273.289C182.443 272.519 181.563 272.136 181.026 271.384C178.354 267.646 174.673 268.299 172.751 273.378C168.646 275.516 168.607 279.062 171.125 282.473C172.728 284.642 172.948 287.578 174.354 289.901C174.21 290.092 174.059 290.277 173.914 290.468C171.27 293.977 168.965 297.745 167.033 301.718C167.503 297.267 166.942 292.765 165.397 288.581C163.831 284.682 160.895 281.399 158.31 278.028C155.205 273.979 148.838 275.746 148.291 280.879C148.286 280.928 148.28 280.978 148.275 281.028C148.659 281.251 149.035 281.488 149.403 281.739C149.865 282.058 150.223 282.513 150.43 283.045C150.637 283.577 150.684 284.161 150.563 284.721C150.443 285.281 150.162 285.79 149.757 286.182C149.351 286.574 148.84 286.831 148.291 286.918L148.235 286.927C148.372 288.355 148.614 289.77 148.958 291.161C145.642 304.396 152.802 309.216 163.025 309.433C163.25 309.552 163.47 309.671 163.696 309.785C161.755 315.462 160.537 321.375 160.074 327.376C159.811 330.917 159.827 334.473 160.12 338.011L160.103 337.885C159.362 333.952 157.328 330.402 154.345 327.836C149.915 324.08 143.655 322.697 138.875 319.678C138.367 319.341 137.777 319.162 137.173 319.16C136.569 319.159 135.978 319.335 135.468 319.669C134.959 320.003 134.552 320.481 134.297 321.045C134.042 321.61 133.948 322.238 134.027 322.855C134.034 322.899 134.04 322.943 134.047 322.987C134.76 323.287 135.453 323.632 136.124 324.02C136.508 324.244 136.884 324.481 137.252 324.732C137.714 325.051 138.072 325.506 138.279 326.038C138.486 326.57 138.532 327.154 138.412 327.714C138.292 328.274 138.011 328.783 137.605 329.175C137.2 329.567 136.689 329.824 136.14 329.911L136.084 329.92C136.043 329.926 136.008 329.932 135.968 329.938C137.185 332.938 138.894 335.699 141.019 338.1C143.093 349.654 151.999 350.75 161.526 347.386H161.532C162.577 352.073 164.092 356.636 166.051 361H182.195C182.253 360.815 182.305 360.624 182.357 360.439C180.862 360.536 179.362 360.443 177.89 360.164C179.087 358.647 180.285 357.119 181.483 355.602C181.51 355.574 181.535 355.544 181.558 355.512C182.166 354.736 182.779 353.966 183.387 353.19L183.387 353.189C183.419 350.809 183.155 348.435 182.6 346.126L182.599 346.125Z" fill="#F2F2F2"/>
<path d="M58 321.138L62.43 326L83 310.176L76.4619 303L58 321.138Z" fill="#A0616A"/>
<path d="M65.3556 324.053L60.2504 319.191L58.9968 318L46 328.535L49.3808 332.158L53.3604 329.57L51.5322 334.464L60.4959 344.069C60.9254 344.53 61.4889 344.839 62.1041 344.952C62.7193 345.065 63.3541 344.976 63.9158 344.698C64.4774 344.419 64.9365 343.966 65.2261 343.404C65.5158 342.842 65.6207 342.201 65.5256 341.575L63.5911 328.885L67 325.617L65.3556 324.053Z" fill="#2F2E41"/>
<path d="M157 142.992L155.565 159.045C155.565 159.045 153.06 171.14 154.795 170.16C156.529 169.179 153.419 173.591 154.238 177.418C155.057 181.244 147.242 209.776 150.782 206.82C154.321 203.864 148.736 224.283 145.204 234.357C144.123 237.471 143.011 240.623 141.893 243.752C141.672 244.386 141.451 245.011 141.224 245.645C139.774 249.717 138.324 253.728 136.933 257.513C136.735 258.041 136.543 258.569 136.352 259.089C136.345 259.104 136.345 259.119 136.337 259.119C131.76 271.462 127.838 281.174 126.271 282.781C125.454 283.617 112.496 293.209 99.4348 302.815C85.7261 312.896 71.9067 323 71.9067 323L59 309.126C59 309.126 59.309 309.035 59.8904 308.855C60.9647 308.538 62.9516 307.942 65.5565 307.15C76.4174 303.87 62.6203 298.766 72.4809 295.116C75.2623 294.091 77.1166 293.292 77.5359 292.869C79.9864 290.419 83.2757 284.575 84.8283 287.026C86.3808 289.476 93.4231 271.267 95.4538 269.464C96.5429 268.492 100.097 263.945 103.144 259.949C105.763 256.51 108.015 253.472 108.015 253.472C108.015 253.472 108.059 251.843 108.125 249.249C108.221 245.411 108.361 239.447 108.508 233.475C108.5 233.467 108.5 233.467 108.508 233.467C108.559 231.22 108.611 228.973 108.662 226.839C108.699 225.188 108.736 223.597 108.773 222.127C108.868 217.723 108.934 214.391 108.934 213.561C108.934 210.839 108.934 212.958 111.032 211.314C111.345 211.062 111.642 210.79 111.922 210.5C112.37 210.086 112.784 209.635 113.158 209.15C113.313 208.811 112.349 209.271 111.098 209.014C110.42 208.875 109.794 208.546 109.288 208.064C106.653 205.636 109.494 198.172 109.494 198.172C103.504 185.896 103.938 175.83 106.742 168.071C108.838 162.503 112.165 157.509 116.462 153.481C118.098 151.884 119.879 150.452 121.783 149.205L121.967 148.187L123.99 136.96C125.066 136.354 126.185 135.833 127.338 135.399C130.932 134.078 134.789 133.684 138.567 134.253C142.322 134.81 145.957 136.016 149.318 137.82C152.065 139.234 154.643 140.97 157 142.992V142.992Z" fill="#2F2E41"/>
<path d="M101 346.355L106.97 347L112 319.952L103.189 319L101 346.355Z" fill="#A0616A"/>
<path d="M118.999 356.633L109.776 348.215L110.194 343.372L108.049 343.296L101.403 343.061H101.396L99.7657 343L97 359.958L101.66 360.429L102.893 355.722L104.614 360.732L107.08 360.983L116.951 361.985C117.035 361.992 117.126 362 117.209 362C117.602 362.001 117.99 361.91 118.348 361.735C118.705 361.559 119.025 361.303 119.285 360.983C119.689 360.501 119.936 359.887 119.989 359.237C120.029 358.748 119.961 358.256 119.788 357.802C119.616 357.349 119.345 356.947 118.999 356.633V356.633Z" fill="#2F2E41"/>
<path d="M137.465 257.418C134.993 271.214 124.532 303.561 118.204 322.494C115.325 331.145 113.313 337 113.313 337L110.032 335.938H110.025L104.477 334.143L102.458 333.485H102.451L100.001 332.686C100.001 332.686 100.286 317.237 100.315 302.342C100.337 296.099 100.307 289.945 100.191 285.069C100.06 279.753 99.8336 275.947 99.462 275.192C97.9235 272.096 100.497 271.767 103.216 270.989C105.943 270.204 103.814 269.023 102.757 266.511C102.043 264.836 103.449 262.6 104.448 261.329C104.724 260.971 105.018 260.629 105.33 260.304C105.33 260.304 104.849 260.132 103.989 259.833C106.584 256.424 108.815 253.41 108.815 253.41C108.815 253.41 108.859 251.795 108.924 249.223C109.019 245.417 109.158 239.502 109.303 233.58C109.296 233.573 109.296 233.573 109.303 233.573C109.354 231.344 109.405 229.116 109.457 227C113.626 230.283 117.68 233.498 121.354 236.474C121.358 236.478 121.362 236.482 121.364 236.487C121.367 236.493 121.368 236.498 121.368 236.504C130.196 243.66 136.823 249.403 137.756 251.227C138.179 252.049 138.033 254.248 137.465 257.418Z" fill="#2F2E41"/>
<path d="M354.231 12.0213C355.485 11.9023 356.734 12.2845 357.714 13.0865C358.694 13.8885 359.327 15.047 359.479 16.3155C359.506 16.5739 359.511 16.834 359.496 17.0933L375 23.8141L374.408 33L354.15 21.4623C353.096 21.3138 352.12 20.8152 351.374 20.0443C350.628 19.2734 350.155 18.2737 350.028 17.201C349.961 16.59 350.014 15.9716 350.183 15.3812C350.352 14.7908 350.634 14.24 351.012 13.7602C351.391 13.2803 351.859 12.8809 352.39 12.5847C352.92 12.2884 353.503 12.1012 354.105 12.0337C354.147 12.029 354.189 12.0249 354.231 12.0213Z" fill="#FFB6B6"/>
<path d="M456.695 67.963C456.322 66.2226 455.63 64.57 454.654 63.0926C454.383 62.6722 454.088 62.2687 453.77 61.8843C452.585 60.4452 451.481 59.1251 450.457 57.9466C449.835 57.2081 449.228 56.522 448.658 55.8884C445.345 52.1816 443.173 50.2202 442.179 50.0559C441.696 49.974 441.221 49.9143 440.76 49.8545C438.398 49.5563 436.687 49.34 436.636 46.7967C436.63 46.4323 436.655 46.0681 436.708 45.7078C436.797 45.1028 436.927 44.5047 437.096 43.9179C437.194 43.5853 437.269 43.2465 437.323 42.9037C437.396 42.4638 437.367 42.1353 437.133 41.934C436.84 41.6881 436.35 41.7253 435.429 42.0982C435.283 42.1579 435.114 42.2249 434.939 42.3069C434.88 42.3294 434.822 42.3593 434.756 42.3892C434.639 42.4412 434.507 42.501 434.376 42.568C433.272 43.1051 431.568 43.1721 429.623 42.9707C423.882 42.3742 416.116 39.4208 416.021 39.3833L367.112 20L366.658 20.7458L365.583 22.5207L365.21 23.1322L364.786 23.8332L362.936 26.8761L362 28.4125L377.796 40.5617L379.514 41.8818L380.992 43.0231L411.15 66.2251L422.397 73.795L424.906 75.4803L435.597 82.67C437.134 83.7055 438.858 84.4165 440.669 84.7612C442.48 85.1059 444.34 85.0772 446.139 84.6768C447.939 84.2764 449.641 83.5124 451.146 82.43C452.652 81.3475 453.929 79.9685 454.903 78.3743C456.802 75.2721 457.444 71.539 456.695 67.963V67.963Z" fill="#E7E7FF"/>
<path d="M527.269 362H0.730563C0.536805 362 0.350983 361.895 0.213976 361.707C0.0769692 361.52 0 361.265 0 361C0 360.735 0.0769692 360.48 0.213976 360.293C0.350983 360.105 0.536805 360 0.730563 360H527.269C527.463 360 527.649 360.105 527.786 360.293C527.923 360.48 528 360.735 528 361C528 361.265 527.923 361.52 527.786 361.707C527.649 361.895 527.463 362 527.269 362Z" fill="#E6E6E6"/>
<path d="M120 116L121.372 128.98L120.565 146L157.527 141.522L161 116L156.575 116.045L120 116Z" fill="#FFB6B6"/>
<path d="M151.572 73.6423L137.761 62.4333L130.511 62L119.753 69.0846L117.119 82.8996L110.889 98.4563L120.027 140.439C120.027 140.439 120.884 143.452 118.638 143.814C116.392 144.175 116.661 148.616 116.661 148.616C116.661 148.616 117.119 152.465 114.938 152.804C112.757 153.143 106.942 153.143 112.031 159.868C117.119 166.593 157.365 141.157 157.365 141.157L163.21 109.627C163.21 109.627 174.547 93.9742 162.338 85.0098L151.572 73.6423Z" fill="#E7E7FF"/>
<path d="M91.4296 169.382C90.8346 168.599 90.4096 167.689 90.1846 166.714C89.9596 165.74 89.94 164.726 90.1273 163.743C90.3145 162.76 90.7041 161.832 91.2684 161.025C91.8327 160.217 92.5582 159.55 93.3936 159.07L110.379 99L121 104.635L102.502 162.212C103.174 163.744 103.29 165.483 102.826 167.099C102.363 168.715 101.353 170.096 99.988 170.98C98.6231 171.863 96.998 172.189 95.4207 171.894C93.8433 171.6 92.4233 170.706 91.4296 169.382V169.382Z" fill="#A0616A"/>
<path d="M122.156 68.1706C122.156 68.1706 119.037 66.463 116.903 73.8522C115.195 79.7678 101.336 115.003 101.159 123.57C100.019 123.819 98.9908 124.452 98.2378 125.369C97.4848 126.286 97.0493 127.435 97 128.635L114.136 131C117.13 128.398 117.916 124.885 116.757 123.842L120.478 113.374L136 80.0706L124.432 69.3637L122.156 68.1706Z" fill="#E7E7FF"/>
<path d="M213.826 149.593C214.048 148.611 214.058 147.591 213.855 146.605C213.652 145.619 213.242 144.69 212.652 143.885C212.063 143.08 211.309 142.417 210.444 141.944C209.578 141.471 208.623 141.198 207.644 141.146L167.513 94L159 104.449L200.513 148.167C200.536 149.864 201.164 151.493 202.278 152.745C203.391 153.998 204.912 154.787 206.554 154.963C208.195 155.138 209.841 154.689 211.182 153.699C212.522 152.71 213.463 151.249 213.826 149.593H213.826Z" fill="#A0616A"/>
<path d="M143.412 72.7393C143.412 72.7393 145.487 69.8553 150.463 75.4795C154.446 79.982 181.464 105.185 185.182 112.712C186.304 112.433 187.484 112.544 188.538 113.028C189.591 113.512 190.457 114.341 191 115.384L176.686 125C172.932 124.004 170.77 121.229 171.371 119.795L163.699 112.134L136 89.3756L141.877 74.7967L143.412 72.7393Z" fill="#E7E7FF"/>
<path d="M432.774 346L425.999 345.942L423 319L433 319.085L432.774 346Z" fill="#FFB6B6"/>
<path d="M433.758 342.77L432.045 342.652L425.056 342.156L422.807 342L422.765 346.869L412.285 354.25C411.768 354.615 411.376 355.142 411.168 355.754C410.959 356.367 410.945 357.032 411.127 357.654C411.308 358.275 411.677 358.82 412.178 359.209C412.679 359.598 413.287 359.81 413.913 359.815L426.955 359.926L429.239 355.124L430.074 359.956L435 360L433.758 342.77Z" fill="#2F2E41"/>
<path d="M503 340.975L496.304 343L485 317.989L494.884 315L503 340.975Z" fill="#FFB6B6"/>
<path d="M503.539 338L501.795 338.411L494.695 340.078L492.407 340.619L493.845 345.156L485.656 355.196C485.3 355.634 485.079 356.16 485.018 356.713C484.956 357.267 485.057 357.826 485.308 358.327C485.559 358.828 485.95 359.25 486.437 359.546C486.924 359.842 487.488 359.999 488.063 360C488.366 359.999 488.667 359.956 488.957 359.87L501.974 355.997L502.787 350.84L505.089 355.066L510 353.602L503.539 338Z" fill="#2F2E41"/>
<path d="M418.648 117L405.773 155.321L405.348 158.388C402.104 161.542 406.179 162.582 404.651 163.414C403.123 164.245 402.096 166.578 404.155 166.994C406.214 167.411 412.853 316.879 421.611 322.682C430.368 328.486 435.698 332.683 434.089 324.186C433.441 320.762 434.358 302.405 435.683 281.704C435.834 279.358 438.207 276.875 436.148 274.594C434.089 272.313 436.402 270.812 436.531 268.919C438.378 241.887 440.511 215.2 440.511 215.2C440.511 215.2 454.16 263.206 457.704 259.49C461.248 255.774 459.846 264.924 460.929 267.658C461.834 269.943 457.972 274.431 463.647 274.499C469.323 274.568 482.651 321.231 484.003 321.178C486.682 321.074 494.212 321.369 498.684 320.427C500.892 319.961 491.09 284.632 482.905 254.125C482.252 251.692 478.7 251.636 480.985 246.939C483.269 242.242 471.901 211.85 472.877 210.445C475.466 206.714 476.452 205.092 473.899 204.848C471.345 204.603 470.591 206.038 470.453 202.419C470.315 198.8 469.874 189.875 469.874 189.875C469.874 189.875 468.024 154.58 455.072 135.08L453.967 123.494L418.648 117Z" fill="#2F2E41"/>
<path d="M451.046 43L433.992 45.4927L432.963 58.1689L424.547 71.6821C424.547 71.6821 405.841 85.1952 418.887 106.542C413.922 124.93 408.986 142.566 404.28 154.323C400.614 177.654 433.456 179.89 471 171.633C471 171.633 470.482 161.657 467.075 156.861C463.668 152.065 465.523 151.018 465.523 151.018L463.142 142.058C464.489 129.107 459.941 127.944 457.803 121.961L464.293 59.8746L451.046 43Z" fill="#E7E7FF"/>
<path d="M369.058 151.602C369.244 150.342 369.909 149.205 370.912 148.433C371.916 147.66 373.178 147.314 374.431 147.467C374.685 147.502 374.936 147.559 375.18 147.636L385.334 134L394 136.767L378.091 153.928C377.696 154.928 376.985 155.769 376.067 156.318C375.15 156.867 374.078 157.094 373.019 156.964C372.417 156.884 371.837 156.685 371.311 156.379C370.785 156.072 370.325 155.664 369.955 155.178C369.586 154.692 369.315 154.137 369.157 153.545C369 152.953 368.96 152.336 369.04 151.728C369.045 151.686 369.051 151.644 369.058 151.602Z" fill="#FFB6B6"/>
<path d="M456.887 68.1996C456.647 67.8914 456.386 67.5908 456.109 67.2976C454.189 65.2517 451.715 63.853 449.012 63.2844C446.309 62.7158 443.503 63.004 440.962 64.1111C440.714 64.2161 440.467 64.3365 440.227 64.4568C431.537 68.8682 426.847 71.8069 426.279 73.1824C426.083 73.6484 425.916 74.1068 425.749 74.5501C425.588 74.986 425.436 75.3992 425.276 75.775C424.607 77.3835 423.836 78.3831 421.872 77.9321C421.221 77.7675 420.593 77.5175 420.004 77.1882C419.735 77.0528 419.487 76.9101 419.254 76.7747C418.411 76.2939 417.8 75.9482 417.386 76.2638C416.986 76.5717 416.971 77.3534 417.335 79.1647C417.455 79.9207 417.435 80.6935 417.277 81.4418C416.796 83.625 416.043 85.7345 415.037 87.7174C413.529 90.8258 411.834 93.8329 409.961 96.7211L392.661 122.214L391.49 123.935L390.21 125.822L380 140.868L380.604 141.506L383.134 144.175L383.694 144.768L384.203 145.309L385.52 146.7L386.756 148L414.339 124.777L417.415 122.184L422.927 117.539L434.22 108.032L455.593 87.5897C456.942 86.3096 458.027 84.761 458.783 83.0369C459.539 81.3128 459.951 79.4487 459.993 77.5563C459.993 77.4286 460 77.3083 460 77.1805C460.008 73.9033 458.907 70.7263 456.887 68.1996V68.1996Z" fill="#E7E7FF"/>
<path d="M441 43C451.493 43 460 34.2696 460 23.5C460 12.7304 451.493 4 441 4C430.507 4 422 12.7304 422 23.5C422 34.2696 430.507 43 441 43Z" fill="#FFB6B6"/>
<path d="M465.596 50.3969C468.113 54.1501 469.797 58.4399 470.525 62.9553C468.496 64.3073 466.135 65.0175 463.727 64.9997C463.645 64.6711 463.563 64.3426 463.47 64.014C462.772 61.4697 461.734 59.0405 460.386 56.7978C460.571 59.2162 460.256 61.6478 459.463 63.9289C458.191 63.3263 456.827 62.9598 455.433 62.8458C454.298 62.8457 453.178 63.1207 452.163 63.6489C450.983 59.5723 449.896 55.8242 449.126 53.1349C449.102 59.8766 439.617 65.7542 429.268 64.9024C428.894 64.659 432.644 53.573 432.282 53.3174C431.452 52.7455 430.646 52.1249 429.84 51.5164C433.228 46.0647 436.907 40.2235 436.276 39.3474C436.323 40.4305 432.609 45.6388 428.567 50.555C426.324 48.8392 439.068 20.9235 432.772 18.6601C432.667 19.6458 431.277 19.6458 429.583 19.4389C429.137 17.8126 428.472 16.2599 427.609 14.8268C427.721 16.2704 427.555 17.7228 427.119 19.0981C425.446 19.0986 423.778 19.2822 422.143 19.6457C421.764 19.0253 421.347 18.4318 420.893 17.869C420.937 18.5549 420.918 19.2437 420.834 19.9256C419.164 20.3028 417.786 20.7409 417.587 21.0939C416.279 20.5949 418.51 18.3436 417.692 17.1754C415.613 14.2549 418.697 9.99571 420.647 6.97774C424.654 0.795928 433.45 -1.34584 439.676 2.3657C439.956 1.35565 441.393 0.686376 443.238 0.236129C444.02 0.0565157 444.821 -0.0211488 445.621 0.00491546C453.564 0.150933 464.591 6.97774 465.023 15.2406C465.058 16.068 465.117 16.9685 465.175 17.9299C465.736 27.1784 465.047 35.7089 471.109 42.4748C473.305 44.9208 473.328 56.5057 472.487 62.4686C470.303 60.0712 468.75 50.7498 465.596 50.3969Z" fill="#2F2E41"/>
<path d="M117.977 31.5522C116.317 35.7717 111.634 44.0696 111 48.5963L111.285 48.3097C111.83 49.2593 112.449 50.1624 113.136 51.0103C114.367 49.6903 115.855 48.6465 117.503 47.9454C116.603 49.8305 116.081 51.8805 115.97 53.9746C117.737 59.6288 125.906 57.1108 130.693 56.4934C135.473 62.0744 141.832 63.5308 150.16 60.3222C152.489 60.5669 155.096 60.7155 156.728 59.3107C158.36 57.906 157.388 55.3045 158.266 53.3368C164.521 39.3212 158.749 34.2645 153.844 27.9093C152.765 26.5107 152.77 24.4237 151.457 23.0893C149.634 21.2397 146.841 20.6708 144.266 20.2151C144.935 20.2511 145.602 20.1107 146.202 19.8074C146.803 19.5041 147.316 19.0482 147.694 18.4835C148.026 17.9146 148.197 17.2633 148.188 16.6015C148.18 15.9397 147.993 15.2931 147.648 14.7329C146.727 13.1744 144.813 12.2681 142.966 12.0417C141.147 11.9156 139.32 12.0759 137.549 12.517C136.402 12.6711 135.291 13.0336 134.269 13.5873C133.786 13.85 133.394 14.2567 133.144 14.753C132.894 15.2493 132.799 15.8116 132.871 16.3648C133.025 16.8756 133.29 17.3443 133.646 17.7361C134.002 18.1278 134.44 18.4325 134.927 18.6273C135.671 18.9481 136.452 19.1666 137.252 19.277C133.579 18.7904 129.847 19.457 126.554 21.1883C122.427 23.4354 119.642 27.3349 117.977 31.5522Z" fill="#2F2E41"/>
<path d="M140.5 55C148.508 55 155 48.2843 155 40C155 31.7157 148.508 25 140.5 25C132.492 25 126 31.7157 126 40C126 48.2843 132.492 55 140.5 55Z" fill="#A0616A"/>
<path d="M126.284 32.2312C127.124 34.9697 129.523 35.8521 131.74 36.4025C132.439 36.5784 133.143 36.7423 133.853 36.8881C134.114 36.5346 134.393 36.1882 134.684 35.8608C135.892 34.4909 137.352 33.4076 138.97 32.6801C138.27 34.2254 137.805 35.8821 137.593 37.5867C138.933 37.7966 140.281 37.9682 141.636 38.1014C142.783 38.3648 143.98 38.1427 144.979 37.4809C145.978 36.8191 146.704 35.7682 147.006 34.5455C148.239 36.7232 149.698 38.7742 151.693 39.6393C152.834 40.0817 154.076 40.1181 155.238 39.7431C156.399 39.368 157.419 38.6013 158.147 37.5553C159.297 35.8489 160.095 33.8959 160.486 31.8283C161.052 29.4032 161.367 26.6096 160.255 25.071C159.364 23.8257 157.828 23.8034 156.411 23.9138C153.282 24.1729 150.187 24.7786 147.173 25.7215L146.918 26.3406C147.436 22.9823 146.313 19.7512 144.234 18.602C142.832 17.8337 141.145 17.9626 139.506 18.1184C137.401 18.2198 135.321 18.654 133.333 19.4071C131.052 20.3542 129.098 22.0388 127.738 24.2306C126.283 26.6147 125.56 29.8662 126.284 32.2312Z" fill="#2F2E41"/>
<path d="M147.208 18.1287C147.067 18.0848 147.433 18.1412 147.306 18.1448C147.369 18.141 147.431 18.1317 147.493 18.1172C147.503 18.115 147.645 18.0671 147.551 18.1023C147.763 18.0354 147.952 17.905 148.096 17.7271C148.431 17.2892 148.694 16.7948 148.874 16.2646C149.101 15.564 149.466 14.9219 149.945 14.3806C150.08 14.2366 150.247 14.1284 150.43 14.0648C150.612 14.0013 150.807 13.9841 150.997 14.0148C151.188 14.0455 151.368 14.1231 151.525 14.2413C151.682 14.3596 151.81 14.5152 151.898 14.6954C152.079 15.3908 152.017 16.1315 151.724 16.7828C151.519 17.4455 151.215 18.069 150.822 18.6293C150.164 19.5455 149.267 20.2398 148.242 20.6276C147.054 21.0827 145.76 21.1217 144.55 20.7389C144.39 20.669 144.253 20.5514 144.156 20.4006C144.058 20.2498 144.004 20.0723 144 19.8897C143.996 19.7071 144.043 19.5273 144.134 19.3722C144.226 19.217 144.358 19.0933 144.515 19.016L146.532 18.1443C146.638 18.095 146.753 18.0682 146.869 18.0655C146.985 18.0628 147.1 18.0843 147.208 18.1287C147.317 18.1731 147.415 18.2395 147.499 18.3242C147.583 18.4089 147.65 18.5102 147.697 18.6223C147.744 18.7344 147.769 18.8552 147.772 18.9776C147.774 19.1001 147.754 19.2218 147.712 19.336C147.67 19.4501 147.607 19.5544 147.526 19.6429C147.446 19.7314 147.35 19.8023 147.244 19.8516L145.226 20.7234L145.191 19.0005C145.442 19.0772 145.701 19.1239 145.963 19.1399C146.242 19.1694 146.524 19.1568 146.8 19.1026C147.064 19.0661 147.323 18.9993 147.574 18.9034C147.734 18.8416 147.891 18.7712 148.045 18.6925C148.101 18.6639 148.156 18.6342 148.211 18.6034C148.207 18.6057 148.442 18.4614 148.339 18.5292C148.6 18.3531 148.844 18.1518 149.07 17.9278C149.15 17.8484 149.223 17.7622 149.289 17.6702C149.404 17.5211 149.511 17.3651 149.609 17.2029C149.807 16.8595 149.965 16.4913 150.077 16.1067C150.129 15.9451 150.172 15.7808 150.207 15.6145C150.217 15.5231 150.232 15.4326 150.254 15.3436C150.329 15.1313 150.24 15.4675 150.326 15.5594L150.698 15.8487C150.767 15.8707 150.841 15.8758 150.913 15.8636C150.985 15.8515 151.053 15.8224 151.113 15.7785C151.157 15.713 151.148 15.7239 151.084 15.8111C151.011 15.9136 150.943 16.021 150.882 16.1326C150.749 16.3953 150.629 16.665 150.521 16.9406C150.299 17.5268 150.019 18.0863 149.684 18.6095C149.356 19.1388 148.878 19.5453 148.319 19.7712C147.759 19.997 147.147 20.0306 146.568 19.8672C146.351 19.776 146.176 19.5982 146.082 19.3724C145.988 19.1465 145.982 18.8906 146.065 18.66C146.153 18.4326 146.322 18.2504 146.535 18.1513C146.748 18.0523 146.99 18.0442 147.208 18.1287V18.1287Z" fill="#2F2E41"/>
</svg>
