<?xml version="1.0" standalone="no"?>
<!DOCTYPE svg PUBLIC "-//W3C//DTD SVG 20010904//EN"
 "http://www.w3.org/TR/2001/REC-SVG-20010904/DTD/svg10.dtd">
<svg version="1.0" xmlns="http://www.w3.org/2000/svg"
 width="1200.000000pt" height="1200.000000pt" viewBox="0 0 1200.000000 1200.000000"
 preserveAspectRatio="xMidYMid meet">

<g transform="translate(0.000000,1200.000000) scale(0.100000,-0.100000)"
fill="#000000" stroke="none">
<path d="M5211 7838 c-324 -48 -381 -494 -80 -627 176 -78 391 21 445 206 68
235 -124 457 -365 421z"/>
<path d="M5787 6972 l-847 -847 218 -218 217 -217 848 848 847 847 -218 218
-217 217 -848 -848z"/>
<path d="M6655 6346 c-119 -29 -214 -129 -240 -252 -65 -312 300 -523 541
-312 50 44 82 98 100 171 44 170 -69 352 -243 393 -69 16 -92 16 -158 0z"/>
<path d="M7400 5805 l0 -95 1425 0 1425 0 0 95 0 95 -1425 0 -1425 0 0 -95z"/>
<path d="M1750 5785 l0 -95 1425 0 1425 0 0 95 0 95 -1425 0 -1425 0 0 -95z"/>
<path d="M3440 4570 l0 -480 60 0 60 0 0 245 0 245 80 0 80 0 0 50 0 50 -80 0
-80 0 0 185 0 185 -60 0 -60 0 0 -480z"/>
<path d="M5530 4570 l0 -480 55 0 55 0 0 480 0 480 -55 0 -55 0 0 -480z"/>
<path d="M7530 4985 l0 -65 -115 0 -115 0 0 -50 0 -50 290 0 290 0 0 50 0 50
-115 0 -115 0 0 65 0 65 -60 0 -60 0 0 -65z"/>
<path d="M7940 4575 l0 -475 60 0 60 0 0 220 0 220 75 0 75 0 0 50 0 50 -75 0
-75 0 0 205 0 205 -60 0 -60 0 0 -475z"/>
<path d="M8990 4570 l0 -480 60 0 60 0 0 480 0 480 -60 0 -60 0 0 -480z"/>
<path d="M6410 4980 l0 -50 246 0 245 0 -3 -110 -3 -110 56 0 56 0 7 38 c3 20
6 92 6 160 l0 122 -305 0 -305 0 0 -50z"/>
<path d="M3970 4855 l0 -165 310 0 310 0 0 50 0 50 -250 0 -250 0 0 115 0 115
-60 0 -60 0 0 -165z"/>
<path d="M2860 4663 l0 -306 243 6 c133 4 254 10 268 13 25 6 25 7 18 56 -5
28 -10 52 -11 53 -2 2 -23 -1 -48 -5 -25 -5 -114 -9 -197 -10 l-153 0 0 250 0
250 -60 0 -60 0 0 -307z"/>
<path d="M4910 4920 l0 -50 169 0 169 0 -13 -49 c-43 -163 -175 -327 -322
-399 -29 -15 -53 -29 -53 -32 0 -3 19 -25 43 -48 l43 -42 63 42 c212 138 360
377 361 581 l0 47 -230 0 -230 0 0 -50z"/>
<path d="M8370 4920 l0 -50 171 0 171 0 -7 -32 c-14 -63 -47 -138 -86 -197
-52 -78 -162 -179 -239 -220 l-62 -33 33 -34 c18 -19 41 -37 51 -40 26 -8 131
62 208 138 132 131 207 282 225 451 l7 67 -236 0 -236 0 0 -50z"/>
<path d="M6600 4740 l0 -90 -165 0 -165 0 0 -50 0 -50 445 0 445 0 0 50 0 50
-220 0 -220 0 0 90 0 90 -60 0 -60 0 0 -90z"/>
<path d="M7490 4751 c-169 -60 -202 -277 -58 -381 119 -87 322 -50 386 70 20
38 23 56 20 116 -3 58 -8 78 -31 111 -61 87 -202 125 -317 84z m178 -101 c36
-22 52 -54 52 -105 0 -84 -50 -129 -138 -122 -44 3 -59 9 -85 36 -27 27 -32
39 -32 80 0 54 24 97 66 118 36 19 100 16 137 -7z"/>
<path d="M3830 4510 l0 -50 190 0 190 0 0 -185 0 -185 60 0 60 0 0 185 0 185
190 0 190 0 0 50 0 50 -440 0 -440 0 0 -50z"/>
<path d="M6400 4305 l0 -185 315 0 315 0 0 185 0 185 -60 0 -60 0 0 -50 0 -50
-195 0 -195 0 0 50 0 50 -60 0 -60 0 0 -185z m510 -50 l0 -35 -195 0 -195 0 0
35 0 35 195 0 195 0 0 -35z"/>
</g>
</svg>
